<svg style="background-color:black" width="100%" height="100%" id="svg" viewBox="0 0 1440 590" xmlns="http://www.w3.org/2000/svg" class="transition duration-300 ease-in-out delay-150"><defs><linearGradient id="gradient" x1="0%" y1="50%" x2="100%" y2="50%"><stop offset="5%" stop-color="#00a084"></stop><stop offset="95%" stop-color="#000000"></stop></linearGradient></defs><path d="M 0,600 C 0,600 0,200 0,200 C 106.72727272727272,218.57416267942585 213.45454545454544,237.14832535885168 308,238 C 402.54545454545456,238.85167464114832 484.9090909090909,221.98086124401914 579,213 C 673.0909090909091,204.01913875598086 778.909090909091,202.9282296650718 870,204 C 961.090909090909,205.0717703349282 1037.4545454545455,208.3062200956938 1130,208 C 1222.5454545454545,207.6937799043062 1331.2727272727273,203.8468899521531 1440,200 C 1440,200 1440,600 1440,600 Z" stroke="none" stroke-width="0" fill="url(#gradient)" fill-opacity="0.53" class="transition-all duration-300 ease-in-out delay-150 path-0"></path><defs><linearGradient id="gradient" x1="0%" y1="50%" x2="100%" y2="50%"><stop offset="5%" stop-color="#00a084"></stop><stop offset="95%" stop-color="#000000"></stop></linearGradient></defs><path d="M 0,600 C 0,600 0,400 0,400 C 121.72248803827753,367.1004784688995 243.44497607655506,334.20095693779905 335,357 C 426.55502392344494,379.79904306220095 487.9425837320574,458.29665071770336 574,448 C 660.0574162679426,437.70334928229664 770.7846889952153,338.6124401913875 881,325 C 991.2153110047847,311.3875598086125 1100.9186602870811,383.25358851674645 1194,410 C 1287.0813397129189,436.74641148325355 1363.5406698564593,418.37320574162675 1440,400 C 1440,400 1440,600 1440,600 Z" stroke="none" stroke-width="0" fill="url(#gradient)" fill-opacity="1" class="transition-all duration-300 ease-in-out delay-150 path-1"></path></svg>
