

<svg style="background-color:black" width="100%" height="100%" id="svg" viewBox="0 0 1440 590" xmlns="http://www.w3.org/2000/svg" class="transition duration-300 ease-in-out delay-150"><path d="M 0,600 C 0,600 0,200 0,200 C 82.6794258373206,185.66507177033492 165.3588516746412,171.33014354066987 273,195 C 380.6411483253588,218.66985645933013 513.244019138756,280.3444976076555 604,271 C 694.755980861244,261.6555023923445 743.6650717703347,181.29186602870814 820,159 C 896.3349282296653,136.70813397129186 1000.0956937799044,172.48803827751195 1108,189 C 1215.9043062200956,205.51196172248805 1327.9521531100477,202.75598086124404 1440,200 C 1440,200 1440,600 1440,600 Z" stroke="none" stroke-width="0" fill="#ff6900" fill-opacity="0.53" class="transition-all duration-300 ease-in-out delay-150 path-0"></path><path d="M 0,600 C 0,600 0,400 0,400 C 108.59330143540669,421.6842105263158 217.18660287081337,443.36842105263156 296,445 C 374.8133971291866,446.63157894736844 423.8468899521532,428.2105263157895 529,422 C 634.1531100478468,415.7894736842105 795.4258373205741,421.7894736842106 894,419 C 992.5741626794259,416.2105263157894 1028.4497607655503,404.6315789473684 1109,400 C 1189.5502392344497,395.3684210526316 1314.7751196172248,397.68421052631584 1440,400 C 1440,400 1440,600 1440,600 Z" stroke="none" stroke-width="0" fill="#ff6900" fill-opacity="1" class="transition-all duration-300 ease-in-out delay-150 path-1"></path></svg>