<svg xmlns="http://www.w3.org/2000/svg" version="1.1" xmlns:xlink="http://www.w3.org/1999/xlink" xmlns:svgjs="http://svgjs.dev/svgjs" width="1440" height="560" preserveAspectRatio="none" viewBox="0 0 1440 560"><g mask="url(&quot;#SvgjsMask1001&quot;)" fill="none"><rect width="1440" height="560" x="0" y="0" fill="#0e2a47"></rect><path d="M 0,151 C 96,127.4 288,33.4 480,33 C 672,32.6 768,140.2 960,149 C 1152,157.8 1344,91.4 1440,77L1440 560L0 560z" fill="#fa41c3"></path><path d="M 0,222 C 57.6,237.8 172.8,305.4 288,301 C 403.2,296.6 460.8,194 576,200 C 691.2,206 748.8,327.2 864,331 C 979.2,334.8 1036.8,213.6 1152,219 C 1267.2,224.4 1382.4,330.2 1440,358L1440 560L0 560z" fill="#184a7e"></path><path d="M 0,386 C 96,408.6 288,485.4 480,499 C 672,512.6 768,459.6 960,454 C 1152,448.4 1344,467.6 1440,471L1440 560L0 560z" fill="rgba(6, 25, 43, 1)"></path></g><defs><mask id="SvgjsMask1001"><rect width="1440" height="560" fill="#ffffff"></rect></mask></defs></svg>