<svg xmlns="http://www.w3.org/2000/svg" version="1.1" xmlns:xlink="http://www.w3.org/1999/xlink" xmlns:svgjs="http://svgjs.dev/svgjs" width="1440" height="560" preserveAspectRatio="none" viewBox="0 0 1440 560"><g mask="url(&quot;#SvgjsMask1002&quot;)" fill="none"><rect width="1440" height="560" x="0" y="0" fill="#0e2a47"></rect><path d="M 0,80 C 57.6,109 172.8,239 288,225 C 403.2,211 460.8,15.6 576,10 C 691.2,4.4 748.8,189.6 864,197 C 979.2,204.4 1036.8,49.2 1152,47 C 1267.2,44.8 1382.4,158.2 1440,186L1440 560L0 560z" fill="#184a7e"></path><path d="M 0,482 C 96,443.6 288,291.4 480,290 C 672,288.6 768,454.8 960,475 C 1152,495.2 1344,407.8 1440,391L1440 560L0 560z" fill="rgba(6, 25, 43, 1)"></path></g><defs><mask id="SvgjsMask1002"><rect width="1440" height="560" fill="#ffffff"></rect></mask></defs></svg>